<svg width="0" height="0" class="hidden"
    xmlns="http://www.w3.org/2000/svg">


    <!-- Busbar -->
    <symbol fill="none" xmlns="http://www.w3.org/2000/svg" viewBox="0 0 42 35" id="icon-busbar">
        <path fill-rule="evenodd" clip-rule="evenodd"
            d="M8.77558 0V0.179786H0.5H0V0.679786V5.73161C0 6.00775 0.223858 6.23161 0.5 6.23161C0.776142 6.23161 1 6.00775 1 5.73161V1.17979H8.55078L8.55078 33.4258H1V28.874C1 28.5978 0.776142 28.374 0.5 28.374C0.223858 28.374 0 28.5978 0 28.874V33.9258V34.4258H0.5H8.77503V34.4413H9.27503H12.7287C13.0048 34.4413 13.2287 34.2175 13.2287 33.9413C13.2287 33.6652 13.0048 33.4413 12.7287 33.4413H9.77503V28.4229H31.5037V33.4413H28.55C28.2738 33.4413 28.05 33.6652 28.05 33.9413C28.05 34.2175 28.2738 34.4413 28.55 34.4413H32.0037H32.5037V34.4248H40.8447H41.3447V33.9248V28.873C41.3447 28.5968 41.1209 28.373 40.8447 28.373C40.5686 28.373 40.3447 28.5968 40.3447 28.873V33.4248H32.793V1.17879H40.3447V5.73061C40.3447 6.00675 40.5686 6.23061 40.8447 6.23061C41.1209 6.23061 41.3447 6.00675 41.3447 5.73061V0.67879V0.17879H40.8447H32.5042V0H32.0042H28.5505C28.2744 0 28.0505 0.223857 28.0505 0.499999C28.0505 0.776142 28.2744 0.999999 28.5505 0.999999L31.5042 0.999999V6.01839L9.77558 6.01839V0.999999L12.7293 0.999999C13.0054 0.999999 13.2293 0.776142 13.2293 0.499999C13.2293 0.223857 13.0054 0 12.7293 0H9.27558H8.77558ZM31.793 27.4229L31.793 7.01839L9.55078 7.01839L9.55078 27.4229H31.793Z"></path>
        <line x1="11" y1="21.48" x2="30" y2="21.48"></line>
        <line x1="11" y1="16.48" x2="30" y2="16.48"></line>
        <line x1="11" y1="11.48" x2="30" y2="11.48"></line>
    </symbol>

    <!-- Kablo Kanalı -->
    <symbol fill="none" xmlns="http://www.w3.org/2000/svg" viewBox="0 0 66 19"
        id="icon-kablo-kanali">
        <path fill-rule="evenodd" clip-rule="evenodd"
            d="M8.35354 10.8405C8.35352 10.8421 8.35352 10.8438 8.35352 10.8455C8.35352 10.8504 8.35359 10.8552 8.35373 10.8601C8.36102 11.1299 8.582 11.3463 8.85354 11.3463C8.86353 11.3463 8.87345 11.346 8.88329 11.3455L64.9455 11.3455C64.9643 11.3455 64.9829 11.3444 65.0012 11.3424C65.0218 11.345 65.0429 11.3463 65.0642 11.3463C65.3403 11.3463 65.5642 11.1225 65.5642 10.8463L65.5642 0.500003L65.5642 2.50632e-06L65.0642 2.48403e-06L59.1523 2.22049e-06C58.8762 2.20818e-06 58.6523 0.22386 58.6523 0.500002C58.6523 0.776145 58.8762 1 59.1523 1L64.5642 1L64.5642 10.3455L9.35354 10.3455L9.35354 1L14.7654 1C15.0415 1 15.2654 0.776147 15.2654 0.500004C15.2654 0.223862 15.0415 4.4351e-06 14.7654 4.42279e-06L8.85354 2.25703e-06L8.35354 2.23518e-06L8.35354 0.500004L8.35354 10.8405Z"></path>
        <path fill-rule="evenodd" clip-rule="evenodd"
            d="M2.33858e-05 18.1437C7.49758e-06 18.1453 -4.64782e-07 18.147 -4.64852e-07 18.1486C-4.65059e-07 18.1534 6.74699e-05 18.1582 0.000202433 18.163C0.00736359 18.4329 0.228399 18.6495 0.500023 18.6495C0.510007 18.6495 0.519923 18.6492 0.529762 18.6486L56.592 18.6486C56.6108 18.6486 56.6294 18.6476 56.6477 18.6456C56.6683 18.6482 56.6893 18.6495 56.7107 18.6495C56.9868 18.6495 57.2107 18.4256 57.2107 18.1495L57.2107 7.80316L57.2107 7.30316L56.7107 7.30316L50.7988 7.30316C50.5227 7.30316 50.2988 7.52702 50.2988 7.80316C50.2988 8.07931 50.5227 8.30316 50.7988 8.30316L56.2107 8.30316L56.2107 17.6486L1.00002 17.6486L1.00002 8.30317L6.41187 8.30317C6.68802 8.30317 6.91187 8.07931 6.91187 7.80317C6.91187 7.52702 6.68802 7.30317 6.41187 7.30317L0.500024 7.30317L2.38414e-05 7.30317L2.38204e-05 7.80317L2.33858e-05 18.1437Z"></path>
        <path d="M56.5918 18.1481L64.9459 10.8455" stroke-linecap="round"></path>
        <path d="M1.0965 18.1481L9.45062 10.8455" stroke-linecap="round"></path>
        <path d="M0.499817 7.19412L8.25722 0.5" stroke-linecap="round"></path>
        <path d="M6.46704 7.80268L14.8212 0.5" stroke-linecap="round"></path>
        <path d="M57.1885 7.8027L64.9459 1.10858" stroke-linecap="round"></path>
        <path d="M50.625 7.80268L58.9791 0.5" stroke-linecap="round"></path>
    </symbol>


    <!-- Askı Sistemleri -->
    <symbol fill="none" xmlns="http://www.w3.org/2000/svg" viewBox="0 0 40 37"
        id="icon-aski-sistemleri">
        <path fill-rule="evenodd" clip-rule="evenodd"
            d="M0.5 0C0.223858 0 0 0.223858 0 0.5C0 0.776142 0.223858 1 0.5 1H9V23.9561H3.5H2.5V24.9561V32.1346V33.1346H3.5H9V36.194C9 36.4702 9.22386 36.694 9.5 36.694C9.77614 36.694 10 36.4702 10 36.194V33.1346H30V36.194C30 36.4702 30.2239 36.694 30.5 36.694C30.7761 36.694 31 36.4702 31 36.194V33.1346H36.5H37.5V32.1346V24.9561V23.9561H36.5H31V1H39.5C39.7761 1 40 0.776142 40 0.5C40 0.223858 39.7761 0 39.5 0H30.5H9.5H0.5ZM30 23.9561V1H10V23.9561H30ZM10 24.9561H30V32.1346H10V24.9561ZM9 24.9561H3.5V32.1346H9V24.9561ZM31 32.1346V24.9561H36.5V32.1346H31Z"></path>
    </symbol>


    <!-- Aydınlatma -->

    <symbol fill="none" xmlns="http://www.w3.org/2000/svg" viewBox="0 0 54 37" id="icon-aydinlatma">
        <path fill-rule="evenodd" clip-rule="evenodd"
            d="M17.8184 1.86594C18.8969 1.29723 20.0977 1 21.3169 1H24.4225C25.3121 1 26.1945 1.15824 27.0286 1.46734L51.1845 10.4187C51.7728 10.6368 52.1633 11.1979 52.1633 11.8253V15.4993C51.9346 15.3277 51.6738 15.1935 51.3886 15.1071L28.2724 8.09837C26.7201 7.62774 25.107 7.38856 23.4849 7.38856H22.6412C20.3931 7.38856 18.1687 7.84797 16.1045 8.7386L1.50959 15.0358C1.32605 15.115 1.15546 15.2146 1 15.3311V11.6399C1 11.0834 1.30808 10.5726 1.80031 10.3131L17.8184 1.86594ZM0.0320882 16.9315C0.0113489 16.8765 0 16.817 0 16.7548V11.6399C0 10.7124 0.513458 9.86115 1.33385 9.42852L17.352 0.981396C18.5742 0.336857 19.9351 0 21.3169 0H24.4225C25.4307 0 26.4308 0.179344 27.3761 0.529651L51.532 9.48106C52.5125 9.84441 53.1633 10.7796 53.1633 11.8253V16.7548C53.1633 16.8364 53.1438 16.9133 53.1091 16.9813C53.1447 17.1493 53.1633 17.3227 53.1633 17.4995V19.6081C53.1633 20.7658 52.3683 21.7721 51.242 22.0401L33.6965 26.2153C31.8965 26.6436 30.0526 26.86 28.2024 26.86C26.6093 26.86 25.0203 26.6996 23.4593 26.3812L2.00037 22.0043C0.836219 21.7669 0 20.7429 0 19.5547V17.3313C0 17.1959 0.0109212 17.0623 0.0320882 16.9315ZM16.5007 9.65678C18.4398 8.82013 20.5294 8.38857 22.6412 8.38857H23.4849C25.0086 8.38857 26.5241 8.61324 27.9822 9.05536L37.4388 11.9225L24.8275 17.5006L8.12691 13.2698L16.5007 9.65678ZM23.3446 18.1565L6.87724 13.9848C6.80575 13.9667 6.74179 13.934 6.68774 13.8907L1.90575 15.954C1.35603 16.1912 1 16.7326 1 17.3313V19.5547C1 20.2676 1.50173 20.882 2.20022 21.0245L12.2406 23.0724C12.2587 23.0614 12.2777 23.0515 12.2976 23.0427L23.3446 18.1565ZM13.9256 23.416L24.9164 18.5547L42.6695 23.0522L33.465 25.2425C31.7408 25.6527 29.9746 25.86 28.2024 25.86C26.6764 25.86 25.1543 25.7063 23.6592 25.4014L13.9256 23.416ZM26.3994 17.8988L38.7021 12.4572C38.761 12.4311 38.8124 12.3951 38.8552 12.3519L51.0985 16.064C51.7309 16.2558 52.1633 16.8387 52.1633 17.4995V19.6081C52.1633 20.3027 51.6863 20.9065 51.0105 21.0673L44.7376 22.56C44.7021 22.5409 44.6637 22.5258 44.6228 22.5154L26.3994 17.8988Z"></path>
        <path d="M15.7143 30.0543L9.91833 35.9651" stroke-linecap="round"></path>
        <path d="M39.6222 30.0543L45.4182 35.9651" stroke-linecap="round"></path>
        <path d="M28.0304 30.0543L28.0304 35.9651" stroke-linecap="round"></path>
    </symbol>


    <svg xmlns="http://www.w3.org/2000/svg" viewBox="0 0 24 24" fill="none" id='package'>
        <path
            d="M16.5 9.39999L7.5 4.20999M3.27 6.95999L12 12.01L20.73 6.95999M12 22.08V12M21 16V7.99999C20.9996 7.64927 20.9071 7.3048 20.7315 7.00116C20.556 6.69751 20.3037 6.44536 20 6.26999L13 2.26999C12.696 2.09446 12.3511 2.00204 12 2.00204C11.6489 2.00204 11.304 2.09446 11 2.26999L4 6.26999C3.69626 6.44536 3.44398 6.69751 3.26846 7.00116C3.09294 7.3048 3.00036 7.64927 3 7.99999V16C3.00036 16.3507 3.09294 16.6952 3.26846 16.9988C3.44398 17.3025 3.69626 17.5546 4 17.73L11 21.73C11.304 21.9055 11.6489 21.9979 12 21.9979C12.3511 21.9979 12.696 21.9055 13 21.73L20 17.73C20.3037 17.5546 20.556 17.3025 20.7315 16.9988C20.9071 16.6952 20.9996 16.3507 21 16Z"
            stroke-width="2" stroke-linecap="round" stroke-linejoin="round" />
    </svg>

    <svg xmlns="http://www.w3.org/2000/svg" viewBox="0 0 24 24" fill="none" id='chevron-right'>
        <path d="M9 18L15 12L9 6" stroke-width="2" stroke-linecap="round" stroke-linejoin="round" />
    </svg>


    <symbol fill="none"
        xmlns="http://www.w3.org/2000/svg" viewBox="0 0 24 24" id="narrow-right">
        <path d="M6 18L18 6M18 6H10M18 6V14" stroke-width="2" stroke-linecap="round"
            stroke-linejoin="round"></path>
    </symbol>

    <svg xmlns="http://www.w3.org/2000/svg" viewBox="0 0 45 40" id='sustanability'>
        <path
            d="M43.0292 0.563586C42.9553 0.290432 42.7362 0.0810273 42.4605 0.0183953C42.184 -0.0428602 41.8966 0.0512598 41.7119 0.265052C41.6671 0.31693 37.1506 5.46411 28.3493 7.66432C19.8708 9.784 18.7643 16.9571 18.6208 18.7142C15.4978 17.7158 12.0441 17.3038 9.2207 16.9672L7.99447 16.8187C2.96627 16.1898 2.56811 14.5784 2.54875 14.4793C2.52828 14.087 2.21176 13.7714 1.81506 13.7564C1.39453 13.737 1.05531 14.0519 1.02356 14.4614C1.00747 14.6684 0.645874 19.5948 1.70391 25.0778C3.13429 32.4898 6.51453 37.2821 11.4792 38.9372C13.756 39.6959 15.7006 40 17.3563 40C20.096 40 22.041 39.1666 23.3848 38.1826C23.5837 38.1283 23.7541 37.9963 23.8541 37.8134C23.904 37.7715 23.9549 37.7296 24.0026 37.6874C25.5748 36.2997 26.6139 34.3646 27.0553 32.129C28.9131 32.5643 30.637 32.7839 32.2208 32.7839C35.764 32.7839 38.6117 31.6961 40.7225 29.5287C48.5742 21.4644 43.2591 1.4129 43.0292 0.563586ZM22.9911 36.5414C22.9651 36.5644 22.938 36.5859 22.9116 36.6087C15.1322 34.7463 7.89235 20.4389 7.81896 20.2922C7.63012 19.9153 7.17191 19.7612 6.79345 19.9504C6.41585 20.1393 6.2628 20.5983 6.45164 20.9759C6.74837 21.5695 13.339 34.5905 21.2453 37.6791C18.856 38.7887 15.6946 38.7312 11.9627 37.4871C3.34008 34.6129 2.48104 21.7648 2.48776 16.6691C3.46543 17.3426 5.09404 17.9965 7.80477 18.3353L9.0396 18.4849C15.0649 19.2032 24.1707 20.2891 25.4925 26.8981C26.2836 30.8549 25.3489 34.4602 22.9911 36.5414ZM39.6261 28.4633C36.9488 31.2121 32.7872 31.9324 27.2588 30.608C27.353 29.3306 27.2678 27.9813 26.9912 26.5981C26.9398 26.3413 26.8786 26.0923 26.8095 25.8498C28.9415 25.1869 39.3372 21.3873 40.7569 10.0291C40.8091 9.61039 40.512 9.22832 40.0934 9.17601C39.6735 9.12301 39.2926 9.42043 39.2403 9.83949C37.8865 20.671 27.8949 23.9558 26.2647 24.4215C25.0536 21.9253 22.777 20.3219 20.1132 19.2504C20.1222 19.2033 20.1277 19.1551 20.1277 19.1054C20.1277 19.0274 20.2259 11.2706 28.7201 9.14719C35.6757 7.4082 40.034 3.98581 41.8707 2.2759C42.9075 6.85079 45.784 22.1409 39.6261 28.4633Z"
            fill="#49A010" />
    </svg>

    <svg xmlns="http://www.w3.org/2000/svg" viewBox="0 0 24 24" fill="none" id='chevron-down'>
        <path d="M6 9L12 15L18 9" stroke-width="2" stroke-linecap="round" stroke-linejoin="round" />
    </svg>

    <svg xmlns="http://www.w3.org/2000/svg" viewBox="0 0 24 24" fill="none" id="file">
        <path
            d="M14 2.26946V6.4C14 6.96005 14 7.24008 14.109 7.45399C14.2049 7.64215 14.3578 7.79513 14.546 7.89101C14.7599 8 15.0399 8 15.6 8H19.7305M20 9.98822V17.2C20 18.8802 20 19.7202 19.673 20.362C19.3854 20.9265 18.9265 21.3854 18.362 21.673C17.7202 22 16.8802 22 15.2 22H8.8C7.11984 22 6.27976 22 5.63803 21.673C5.07354 21.3854 4.6146 20.9265 4.32698 20.362C4 19.7202 4 18.8802 4 17.2V6.8C4 5.11984 4 4.27976 4.32698 3.63803C4.6146 3.07354 5.07354 2.6146 5.63803 2.32698C6.27976 2 7.11984 2 8.8 2H12.0118C12.7455 2 13.1124 2 13.4577 2.08289C13.7638 2.15638 14.0564 2.27759 14.3249 2.44208C14.6276 2.6276 14.887 2.88703 15.4059 3.40589L18.5941 6.59411C19.113 7.11297 19.3724 7.3724 19.5579 7.67515C19.7224 7.94356 19.8436 8.2362 19.9171 8.5423C20 8.88757 20 9.25445 20 9.98822Z"
            stroke-width="2" stroke-linecap="round" stroke-linejoin="round" />
    </svg>

    <svg xmlns="http://www.w3.org/2000/svg" viewBox="0 0 24 24" fill="none" id="arrow-right">
        <path d="M5 12H19M19 12L12 5M19 12L12 19" stroke-width="2" stroke-linecap="round"
            stroke-linejoin="round" />
    </svg>

    <svg xmlns="http://www.w3.org/2000/svg" viewBox="0 0 24 24" fill="none" id='search'>
        <path
            d="M21 21L16.65 16.65M19 11C19 15.4183 15.4183 19 11 19C6.58172 19 3 15.4183 3 11C3 6.58172 6.58172 3 11 3C15.4183 3 19 6.58172 19 11Z"
            stroke-width="2" stroke-linecap="round" stroke-linejoin="round" />
    </svg>

    <svg xmlns="http://www.w3.org/2000/svg" viewBox="0 0 24 24" fill="none" id='mail'>
        <path
            d="M22 6C22 4.9 21.1 4 20 4H4C2.9 4 2 4.9 2 6M22 6V18C22 19.1 21.1 20 20 20H4C2.9 20 2 19.1 2 18V6M22 6L12 13L2 6"
            stroke-width="2" stroke-linecap="round" stroke-linejoin="round" />
    </svg>

    <svg xmlns="http://www.w3.org/2000/svg" viewBox="0 0 24 24" fill="none" id='printer'>
        <path
            d="M6 9V2H18V9M6 18H4C3.46957 18 2.96086 17.7893 2.58579 17.4142C2.21071 17.0391 2 16.5304 2 16V11C2 10.4696 2.21071 9.96086 2.58579 9.58579C2.96086 9.21071 3.46957 9 4 9H20C20.5304 9 21.0391 9.21071 21.4142 9.58579C21.7893 9.96086 22 10.4696 22 11V16C22 16.5304 21.7893 17.0391 21.4142 17.4142C21.0391 17.7893 20.5304 18 20 18H18M6 14H18V22H6V14Z"
           stroke-width="2" stroke-linecap="round" stroke-linejoin="round" />
    </svg>

    <svg xmlns="http://www.w3.org/2000/svg" viewBox="0 0 24 24" fill="none" id='phone'>
        <path
            d="M22 16.92V19.92C22.0011 20.1985 21.9441 20.4742 21.8325 20.7294C21.7209 20.9845 21.5573 21.2136 21.3521 21.4019C21.1468 21.5901 20.9046 21.7335 20.6407 21.8227C20.3769 21.9119 20.0974 21.9451 19.82 21.92C16.7428 21.5856 13.787 20.5342 11.19 18.85C8.77382 17.3147 6.72533 15.2662 5.18999 12.85C3.49997 10.2412 2.44824 7.271 2.11999 4.18001C2.095 3.90347 2.12787 3.62477 2.21649 3.36163C2.30512 3.09849 2.44756 2.85669 2.63476 2.65163C2.82196 2.44656 3.0498 2.28271 3.30379 2.17053C3.55777 2.05834 3.83233 2.00027 4.10999 2.00001H7.10999C7.5953 1.99523 8.06579 2.16708 8.43376 2.48354C8.80173 2.79999 9.04207 3.23945 9.10999 3.72001C9.23662 4.68007 9.47144 5.62273 9.80999 6.53001C9.94454 6.88793 9.97366 7.27692 9.8939 7.65089C9.81415 8.02485 9.62886 8.36812 9.35999 8.64001L8.08999 9.91001C9.51355 12.4136 11.5864 14.4865 14.09 15.91L15.36 14.64C15.6319 14.3711 15.9751 14.1859 16.3491 14.1061C16.7231 14.0263 17.1121 14.0555 17.47 14.19C18.3773 14.5286 19.3199 14.7634 20.28 14.89C20.7658 14.9585 21.2094 15.2032 21.5265 15.5775C21.8437 15.9518 22.0122 16.4296 22 16.92Z"
            stroke-width="2" stroke-linecap="round" stroke-linejoin="round" />
    </svg>

    <svg xmlns="http://www.w3.org/2000/svg" viewBox="0 0 24 24" id="Facebook">
        <g clip-path="url(#clip0_14_368)">
            <path
                d="M24 12C24 5.37258 18.6274 0 12 0C5.37258 0 0 5.37258 0 12C0 17.9895 4.3882 22.954 10.125 23.8542V15.4688H7.07812V12H10.125V9.35625C10.125 6.34875 11.9166 4.6875 14.6576 4.6875C15.9701 4.6875 17.3438 4.92188 17.3438 4.92188V7.875H15.8306C14.34 7.875 13.875 8.80008 13.875 9.75V12H17.2031L16.6711 15.4688H13.875V23.8542C19.6118 22.954 24 17.9895 24 12Z" />
        </g>
        <defs>
            <clipPath id="clip0_14_368">
                <rect fill="white" />
            </clipPath>
        </defs>
    </svg>

    <svg xmlns="http://www.w3.org/2000/svg" viewBox="0 0 24 24" id="LinkedIn">
        <path
            d="M22.2234 0H1.77187C0.792187 0 0 0.773438 0 1.72969V22.2656C0 23.2219 0.792187 24 1.77187 24H22.2234C23.2031 24 24 23.2219 24 22.2703V1.72969C24 0.773438 23.2031 0 22.2234 0ZM7.12031 20.4516H3.55781V8.99531H7.12031V20.4516ZM5.33906 7.43438C4.19531 7.43438 3.27188 6.51094 3.27188 5.37187C3.27188 4.23281 4.19531 3.30937 5.33906 3.30937C6.47813 3.30937 7.40156 4.23281 7.40156 5.37187C7.40156 6.50625 6.47813 7.43438 5.33906 7.43438ZM20.4516 20.4516H16.8937V14.8828C16.8937 13.5562 16.8703 11.8453 15.0422 11.8453C13.1906 11.8453 12.9094 13.2937 12.9094 14.7891V20.4516H9.35625V8.99531H12.7687V10.5609H12.8156C13.2891 9.66094 14.4516 8.70938 16.1813 8.70938C19.7859 8.70938 20.4516 11.0813 20.4516 14.1656V20.4516Z" />
    </svg>

    <svg xmlns="http://www.w3.org/2000/svg" viewBox="0 0 24 24" id="Instagram">
        <path
            d="M12 2.16094C15.2063 2.16094 15.5859 2.175 16.8469 2.23125C18.0188 2.28281 18.6516 2.47969 19.0734 2.64375C19.6313 2.85938 20.0344 3.12188 20.4516 3.53906C20.8734 3.96094 21.1313 4.35938 21.3469 4.91719C21.5109 5.33906 21.7078 5.97656 21.7594 7.14375C21.8156 8.40937 21.8297 8.78906 21.8297 11.9906C21.8297 15.1969 21.8156 15.5766 21.7594 16.8375C21.7078 18.0094 21.5109 18.6422 21.3469 19.0641C21.1313 19.6219 20.8687 20.025 20.4516 20.4422C20.0297 20.8641 19.6313 21.1219 19.0734 21.3375C18.6516 21.5016 18.0141 21.6984 16.8469 21.75C15.5813 21.8062 15.2016 21.8203 12 21.8203C8.79375 21.8203 8.41406 21.8062 7.15313 21.75C5.98125 21.6984 5.34844 21.5016 4.92656 21.3375C4.36875 21.1219 3.96563 20.8594 3.54844 20.4422C3.12656 20.0203 2.86875 19.6219 2.65313 19.0641C2.48906 18.6422 2.29219 18.0047 2.24063 16.8375C2.18438 15.5719 2.17031 15.1922 2.17031 11.9906C2.17031 8.78438 2.18438 8.40469 2.24063 7.14375C2.29219 5.97187 2.48906 5.33906 2.65313 4.91719C2.86875 4.35938 3.13125 3.95625 3.54844 3.53906C3.97031 3.11719 4.36875 2.85938 4.92656 2.64375C5.34844 2.47969 5.98594 2.28281 7.15313 2.23125C8.41406 2.175 8.79375 2.16094 12 2.16094ZM12 0C8.74219 0 8.33438 0.0140625 7.05469 0.0703125C5.77969 0.126563 4.90313 0.332812 4.14375 0.628125C3.35156 0.9375 2.68125 1.34531 2.01563 2.01562C1.34531 2.68125 0.9375 3.35156 0.628125 4.13906C0.332812 4.90313 0.126563 5.775 0.0703125 7.05C0.0140625 8.33437 0 8.74219 0 12C0 15.2578 0.0140625 15.6656 0.0703125 16.9453C0.126563 18.2203 0.332812 19.0969 0.628125 19.8563C0.9375 20.6484 1.34531 21.3188 2.01563 21.9844C2.68125 22.65 3.35156 23.0625 4.13906 23.3672C4.90313 23.6625 5.775 23.8687 7.05 23.925C8.32969 23.9812 8.7375 23.9953 11.9953 23.9953C15.2531 23.9953 15.6609 23.9812 16.9406 23.925C18.2156 23.8687 19.0922 23.6625 19.8516 23.3672C20.6391 23.0625 21.3094 22.65 21.975 21.9844C22.6406 21.3188 23.0531 20.6484 23.3578 19.8609C23.6531 19.0969 23.8594 18.225 23.9156 16.95C23.9719 15.6703 23.9859 15.2625 23.9859 12.0047C23.9859 8.74688 23.9719 8.33906 23.9156 7.05938C23.8594 5.78438 23.6531 4.90781 23.3578 4.14844C23.0625 3.35156 22.6547 2.68125 21.9844 2.01562C21.3188 1.35 20.6484 0.9375 19.8609 0.632812C19.0969 0.3375 18.225 0.13125 16.95 0.075C15.6656 0.0140625 15.2578 0 12 0Z" />
        <path
            d="M12 5.83594C8.59688 5.83594 5.83594 8.59688 5.83594 12C5.83594 15.4031 8.59688 18.1641 12 18.1641C15.4031 18.1641 18.1641 15.4031 18.1641 12C18.1641 8.59688 15.4031 5.83594 12 5.83594ZM12 15.9984C9.79219 15.9984 8.00156 14.2078 8.00156 12C8.00156 9.79219 9.79219 8.00156 12 8.00156C14.2078 8.00156 15.9984 9.79219 15.9984 12C15.9984 14.2078 14.2078 15.9984 12 15.9984Z" />
        <path
            d="M19.8469 5.59238C19.8469 6.38926 19.2 7.03145 18.4078 7.03145C17.6109 7.03145 16.9688 6.38457 16.9688 5.59238C16.9688 4.79551 17.6156 4.15332 18.4078 4.15332C19.2 4.15332 19.8469 4.8002 19.8469 5.59238Z" />
    </svg>

    <svg xmlns="http://www.w3.org/2000/svg" viewBox="0 0 24 18" id="Youtube">
        <path
            d="M23.7609 4.1998C23.7609 4.1998 23.5266 2.54512 22.8047 1.81855C21.8906 0.862305 20.8688 0.857617 20.4 0.801367C17.0438 0.557617 12.0047 0.557617 12.0047 0.557617H11.9953C11.9953 0.557617 6.95625 0.557617 3.6 0.801367C3.13125 0.857617 2.10938 0.862305 1.19531 1.81855C0.473438 2.54512 0.24375 4.1998 0.24375 4.1998C0.24375 4.1998 0 6.14512 0 8.08574V9.90449C0 11.8451 0.239062 13.7904 0.239062 13.7904C0.239062 13.7904 0.473437 15.4451 1.19062 16.1717C2.10469 17.1279 3.30469 17.0951 3.83906 17.1982C5.76094 17.3811 12 17.4373 12 17.4373C12 17.4373 17.0438 17.4279 20.4 17.1889C20.8688 17.1326 21.8906 17.1279 22.8047 16.1717C23.5266 15.4451 23.7609 13.7904 23.7609 13.7904C23.7609 13.7904 24 11.8498 24 9.90449V8.08574C24 6.14512 23.7609 4.1998 23.7609 4.1998ZM9.52031 12.1123V5.36699L16.0031 8.75137L9.52031 12.1123Z" />
    </svg>

</svg>